<svg width="22" height="23" viewBox="0 0 22 23" fill="none" xmlns="http://www.w3.org/2000/svg">
<g clip-path="url(#clip0_492_2935)">
<path d="M11 0.84375C4.92492 0.84375 0 5.76867 0 11.8438C0 17.0023 3.55168 21.331 8.34284 22.5199V15.2053H6.07464V11.8438H8.34284V10.3953C8.34284 6.65131 10.0373 4.91595 13.713 4.91595C14.41 4.91595 15.6125 5.05279 16.1044 5.18919V8.23619C15.8448 8.20891 15.3938 8.19527 14.8337 8.19527C13.0302 8.19527 12.3332 8.87859 12.3332 10.6549V11.8438H15.9262L15.3089 15.2053H12.3332V22.7632C17.78 22.1054 22.0004 17.4678 22.0004 11.8438C22 5.76867 17.0751 0.84375 11 0.84375Z" fill="#181818"/>
</g>
<defs>
<clipPath id="clip0_492_2935">
<rect width="22" height="22" fill="white" transform="translate(0 0.84375)"/>
</clipPath>
</defs>
</svg>
