<svg width="22" height="23" viewBox="0 0 22 23" fill="none" xmlns="http://www.w3.org/2000/svg">
<g clip-path="url(#clip0_492_2937)">
<path d="M11 2.82461C13.9391 2.82461 14.2871 2.8375 15.443 2.88906C16.5172 2.93633 17.0973 3.1168 17.484 3.26719C17.9953 3.46484 18.3648 3.70547 18.7473 4.08789C19.134 4.47461 19.3703 4.83984 19.568 5.35117C19.7184 5.73789 19.8988 6.32227 19.9461 7.39219C19.9977 8.55234 20.0105 8.90039 20.0105 11.8352C20.0105 14.7742 19.9977 15.1223 19.9461 16.2781C19.8988 17.3523 19.7184 17.9324 19.568 18.3191C19.3703 18.8305 19.1297 19.2 18.7473 19.5824C18.3605 19.9691 17.9953 20.2055 17.484 20.4031C17.0973 20.5535 16.5129 20.734 15.443 20.7812C14.2828 20.8328 13.9348 20.8457 11 20.8457C8.06094 20.8457 7.71289 20.8328 6.55703 20.7812C5.48281 20.734 4.90274 20.5535 4.51602 20.4031C4.00469 20.2055 3.63516 19.9648 3.25273 19.5824C2.86602 19.1957 2.62969 18.8305 2.43203 18.3191C2.28164 17.9324 2.10117 17.348 2.05391 16.2781C2.00234 15.118 1.98945 14.7699 1.98945 11.8352C1.98945 8.89609 2.00234 8.54805 2.05391 7.39219C2.10117 6.31797 2.28164 5.73789 2.43203 5.35117C2.62969 4.83984 2.87031 4.47031 3.25273 4.08789C3.63945 3.70117 4.00469 3.46484 4.51602 3.26719C4.90274 3.1168 5.48711 2.93633 6.55703 2.88906C7.71289 2.8375 8.06094 2.82461 11 2.82461ZM11 0.84375C8.01367 0.84375 7.63984 0.856641 6.4668 0.908203C5.29805 0.959766 4.49453 1.14883 3.79844 1.41953C3.07227 1.70312 2.45781 2.07695 1.84766 2.69141C1.2332 3.30156 0.859375 3.91602 0.575781 4.63789C0.305078 5.33828 0.116016 6.1375 0.0644531 7.30625C0.0128906 8.48359 0 8.85742 0 11.8438C0 14.8301 0.0128906 15.2039 0.0644531 16.377C0.116016 17.5457 0.305078 18.3492 0.575781 19.0453C0.859375 19.7715 1.2332 20.3859 1.84766 20.9961C2.45781 21.6063 3.07227 21.9844 3.79414 22.2637C4.49453 22.5344 5.29375 22.7234 6.4625 22.775C7.63555 22.8266 8.00938 22.8395 10.9957 22.8395C13.982 22.8395 14.3559 22.8266 15.5289 22.775C16.6977 22.7234 17.5012 22.5344 18.1973 22.2637C18.9191 21.9844 19.5336 21.6063 20.1438 20.9961C20.7539 20.3859 21.132 19.7715 21.4113 19.0496C21.682 18.3492 21.8711 17.55 21.9227 16.3813C21.9742 15.2082 21.9871 14.8344 21.9871 11.848C21.9871 8.86172 21.9742 8.48789 21.9227 7.31484C21.8711 6.14609 21.682 5.34258 21.4113 4.64648C21.1406 3.91602 20.7668 3.30156 20.1523 2.69141C19.5422 2.08125 18.9277 1.70312 18.2059 1.42383C17.5055 1.15312 16.7063 0.964063 15.5375 0.9125C14.3602 0.856641 13.9863 0.84375 11 0.84375Z" fill="#181818"/>
<path d="M11 6.19531C7.88047 6.19531 5.34961 8.72617 5.34961 11.8457C5.34961 14.9652 7.88047 17.4961 11 17.4961C14.1195 17.4961 16.6504 14.9652 16.6504 11.8457C16.6504 8.72617 14.1195 6.19531 11 6.19531ZM11 15.5109C8.97617 15.5109 7.33477 13.8695 7.33477 11.8457C7.33477 9.82188 8.97617 8.18047 11 8.18047C13.0238 8.18047 14.6652 9.82188 14.6652 11.8457C14.6652 13.8695 13.0238 15.5109 11 15.5109Z" fill="#181818"/>
<path d="M18.193 5.96758C18.193 6.69805 17.6 7.28672 16.8738 7.28672C16.1434 7.28672 15.5547 6.69375 15.5547 5.96758C15.5547 5.23711 16.1477 4.64844 16.8738 4.64844C17.6 4.64844 18.193 5.24141 18.193 5.96758Z" fill="#181818"/>
</g>
<defs>
<clipPath id="clip0_492_2937">
<rect width="22" height="22" fill="white" transform="translate(0 0.84375)"/>
</clipPath>
</defs>
</svg>
