<svg width="25" height="24" viewBox="0 0 25 24" fill="none" xmlns="http://www.w3.org/2000/svg">
<path d="M18.8398 14.13L16.6598 12.38C16.3498 12.14 15.9598 12 15.5598 12H13.2498V9H17.7198C18.6898 9 19.4698 8.22 19.4698 7.25V3.75C19.4698 2.78 18.6898 2 17.7198 2H9.45984C9.06984 2 8.67984 2.14 8.36984 2.38L6.17984 4.13C5.30984 4.83 5.30984 6.17 6.17984 6.87L8.36984 8.62C8.67984 8.86 9.06984 9 9.45984 9H11.7498V12H7.29984C6.32984 12 5.54984 12.78 5.54984 13.75V17.25C5.54984 18.22 6.32984 19 7.29984 19H11.7498V21.25H9.49984C9.08984 21.25 8.74984 21.59 8.74984 22C8.74984 22.41 9.08984 22.75 9.49984 22.75H15.4998C15.9098 22.75 16.2498 22.41 16.2498 22C16.2498 21.59 15.9098 21.25 15.4998 21.25H13.2498V19H15.5598C15.9598 19 16.3498 18.86 16.6598 18.62L18.8398 16.87C19.7198 16.17 19.7198 14.83 18.8398 14.13Z" fill="#E13405"/>
</svg>
