<svg width="22" height="23" viewBox="0 0 22 23" fill="none" xmlns="http://www.w3.org/2000/svg">
<path d="M21.7809 7.44023C21.7809 7.44023 21.566 5.92344 20.9043 5.25742C20.0664 4.38086 19.1297 4.37656 18.7 4.325C15.6234 4.10156 11.0043 4.10156 11.0043 4.10156H10.9957C10.9957 4.10156 6.37656 4.10156 3.3 4.325C2.87031 4.37656 1.93359 4.38086 1.0957 5.25742C0.433984 5.92344 0.223438 7.44023 0.223438 7.44023C0.223438 7.44023 0 9.22344 0 11.0023V12.6695C0 14.4484 0.219141 16.2316 0.219141 16.2316C0.219141 16.2316 0.433984 17.7484 1.09141 18.4145C1.9293 19.291 3.0293 19.2609 3.51914 19.3555C5.28086 19.523 11 19.5746 11 19.5746C11 19.5746 15.6234 19.566 18.7 19.3469C19.1297 19.2953 20.0664 19.291 20.9043 18.4145C21.566 17.7484 21.7809 16.2316 21.7809 16.2316C21.7809 16.2316 22 14.4527 22 12.6695V11.0023C22 9.22344 21.7809 7.44023 21.7809 7.44023ZM8.72695 14.6934V8.51016L14.6695 11.6125L8.72695 14.6934Z" fill="#181818"/>
</svg>
